# xmcd
#
# Track frame offsets:
#	150
#	20182
#	44276
#	58792
#	84568
#	99799
#	117332
#	140651
#	156102
#	167836
#
# Disc length: 2486 seconds
#
# Revision: 0
# Processed by: cddbd v1.5.1PL0 Copyright (c) Steve Scherf et al.
# Submitted via: dBpowerAMP V4.0
#
DISCID=8309b40a
DTITLE=Mark Ghent - Soul City
DYEAR=1999
DGENRE=Blues
TTITLE0=I've Got My mojo Working
TTITLE1=Low Spark of High Heeled Boys
TTITLE2=Hey Babe
TTITLE3=Leavin' Town
TTITLE4=P.T. Blues
TTITLE5=Cars Hiss By My Window
TTITLE6=I'll Play the Blues for You
TTITLE7=Utopian Planet
TTITLE8=Lovin' Cup
TTITLE9=Last Call
EXTD=Soul City is dedicated to Jasmine Ghent
EXTT0=
EXTT1=
EXTT2=
EXTT3=
EXTT4=
EXTT5=
EXTT6=
EXTT7=
EXTT8=
EXTT9=
PLAYORDER=
